<?xml version="1.0" encoding="iso-8859-1"?>
<!-- Generator: Adobe Illustrator 19.1.0, SVG Export Plug-In . SVG Version: 6.00 Build 0)  -->
<svg version="1.1" id="Capa_1" xmlns="http://www.w3.org/2000/svg" xmlns:xlink="http://www.w3.org/1999/xlink" x="0px" y="0px"
	 viewBox="0 0 362.802 362.802" style="enable-background:new 0 0 362.802 362.802;" xml:space="preserve">
<g>
	<g id="Building_2_">
		<g>
			<path d="M79.363,249.427H56.688v22.675h22.675V249.427z M260.764,158.726V68.025h-68.025V0h-22.675v68.025h-68.025v45.35H11.338
				v249.427h340.127V158.726H260.764z M102.038,340.127H79.363v-45.35H56.688v45.35H34.013V136.051h68.025V340.127z
				 M238.089,340.127h-34.013v-45.35h-45.35v45.35h-34.013V90.701h113.376V340.127z M328.79,340.127h-22.675v-45.35h-22.675v45.35
				h-22.675V181.401h68.025V340.127z M79.363,158.726H56.688v22.675h22.675V158.726z M79.363,204.076H56.688v22.675h22.675V204.076z
				 M204.076,113.376h-45.35v22.675h45.35V113.376z M204.076,158.726h-45.35v22.675h45.35V158.726z M306.114,249.427h-22.675v22.675
				h22.675V249.427z M306.114,204.076h-22.675v22.675h22.675V204.076z M204.076,249.427h-45.35v22.675h45.35V249.427z
				 M204.076,204.076h-45.35v22.675h45.35V204.076z"/>
		</g>
	</g>
</g>
<g>
</g>
<g>
</g>
<g>
</g>
<g>
</g>
<g>
</g>
<g>
</g>
<g>
</g>
<g>
</g>
<g>
</g>
<g>
</g>
<g>
</g>
<g>
</g>
<g>
</g>
<g>
</g>
<g>
</g>
</svg>
