<?xml version='1.0' encoding='iso-8859-1'?>
<svg version="1.1" xmlns="http://www.w3.org/2000/svg" viewBox="0 0 342 342" xmlns:xlink="http://www.w3.org/1999/xlink" enable-background="new 0 0 342 342">
  <g fill="#020202">
    <path d="M9,63v279h81V63H9z M36,162H18v-18h18V162z"/>
    <path d="m252,144v198h81v-198h-81zm54,117h-18v-18h18v18zm0-54h-18v-18h18v18z"/>
    <path d="m101.25,0v342h51.75v-54h36v54h56.25v-342h-144zm42.75,99h-18v-18h18v18zm36,99h-18v-18h18v18zm0-99h-18v-18h18v18zm36,99h-18v-18h18v18z"/>
  </g>
</svg>
